<mxfile host="app.diagrams.net" agent="Mozilla/5.0 (Windows NT 10.0; Win64; x64) AppleWebKit/537.36 (KHTML, like Gecko) Chrome/129.0.0.0 Safari/537.36 Edg/129.0.0.0" version="24.7.16">
  <diagram name="Страница — 1" id="3CPMpLebl-1jjfJIK-z_">
    <mxGraphModel dx="2251" dy="945" grid="1" gridSize="10" guides="1" tooltips="1" connect="1" arrows="1" fold="1" page="1" pageScale="1" pageWidth="827" pageHeight="1169" math="0" shadow="0">
      <root>
        <mxCell id="0" />
        <mxCell id="1" parent="0" />
        <mxCell id="FRs5H7n3xmvRlvuZ6DSw-3" value="" style="group" vertex="1" connectable="0" parent="1">
          <mxGeometry x="110" y="240" width="160" height="80" as="geometry" />
        </mxCell>
        <mxCell id="FRs5H7n3xmvRlvuZ6DSw-1" value="Проведение игры" style="rounded=0;whiteSpace=wrap;html=1;" vertex="1" parent="FRs5H7n3xmvRlvuZ6DSw-3">
          <mxGeometry width="160" height="80" as="geometry" />
        </mxCell>
        <mxCell id="FRs5H7n3xmvRlvuZ6DSw-2" value="" style="endArrow=none;html=1;rounded=0;entryX=0.185;entryY=0.002;entryDx=0;entryDy=0;exitX=0;exitY=0.373;exitDx=0;exitDy=0;entryPerimeter=0;exitPerimeter=0;" edge="1" parent="FRs5H7n3xmvRlvuZ6DSw-3" source="FRs5H7n3xmvRlvuZ6DSw-1" target="FRs5H7n3xmvRlvuZ6DSw-1">
          <mxGeometry width="50" height="50" relative="1" as="geometry">
            <mxPoint x="-9.999999999999986" y="5.684341886080802e-14" as="sourcePoint" />
            <mxPoint x="32.60000000000004" y="-39.78" as="targetPoint" />
          </mxGeometry>
        </mxCell>
        <mxCell id="FRs5H7n3xmvRlvuZ6DSw-12" value="&lt;font style=&quot;font-size: 10px;&quot;&gt;А3.1.1&lt;/font&gt;" style="rounded=0;whiteSpace=wrap;html=1;" vertex="1" parent="FRs5H7n3xmvRlvuZ6DSw-3">
          <mxGeometry y="65" width="80" height="15" as="geometry" />
        </mxCell>
        <mxCell id="FRs5H7n3xmvRlvuZ6DSw-14" value="" style="rounded=0;whiteSpace=wrap;html=1;" vertex="1" parent="FRs5H7n3xmvRlvuZ6DSw-3">
          <mxGeometry x="80" y="65" width="80" height="15" as="geometry" />
        </mxCell>
        <mxCell id="FRs5H7n3xmvRlvuZ6DSw-6" value="" style="group" vertex="1" connectable="0" parent="1">
          <mxGeometry x="330" y="250" width="40" height="60" as="geometry" />
        </mxCell>
        <mxCell id="FRs5H7n3xmvRlvuZ6DSw-4" value="Х" style="rounded=0;whiteSpace=wrap;html=1;" vertex="1" parent="FRs5H7n3xmvRlvuZ6DSw-6">
          <mxGeometry x="10" width="30" height="60" as="geometry" />
        </mxCell>
        <mxCell id="FRs5H7n3xmvRlvuZ6DSw-5" value="" style="rounded=0;whiteSpace=wrap;html=1;" vertex="1" parent="FRs5H7n3xmvRlvuZ6DSw-6">
          <mxGeometry width="10" height="60" as="geometry" />
        </mxCell>
        <mxCell id="FRs5H7n3xmvRlvuZ6DSw-7" style="edgeStyle=orthogonalEdgeStyle;rounded=0;orthogonalLoop=1;jettySize=auto;html=1;entryX=0;entryY=0.5;entryDx=0;entryDy=0;" edge="1" parent="1" source="FRs5H7n3xmvRlvuZ6DSw-1" target="FRs5H7n3xmvRlvuZ6DSw-5">
          <mxGeometry relative="1" as="geometry" />
        </mxCell>
        <mxCell id="FRs5H7n3xmvRlvuZ6DSw-8" value="" style="group" vertex="1" connectable="0" parent="1">
          <mxGeometry x="110" y="110" width="160" height="80" as="geometry" />
        </mxCell>
        <mxCell id="FRs5H7n3xmvRlvuZ6DSw-9" value="Пользователь" style="rounded=0;whiteSpace=wrap;html=1;" vertex="1" parent="FRs5H7n3xmvRlvuZ6DSw-8">
          <mxGeometry width="160" height="80" as="geometry" />
        </mxCell>
        <mxCell id="FRs5H7n3xmvRlvuZ6DSw-10" value="" style="endArrow=none;html=1;rounded=0;entryX=0.185;entryY=0.002;entryDx=0;entryDy=0;exitX=0;exitY=0.373;exitDx=0;exitDy=0;entryPerimeter=0;exitPerimeter=0;" edge="1" parent="FRs5H7n3xmvRlvuZ6DSw-8" source="FRs5H7n3xmvRlvuZ6DSw-9" target="FRs5H7n3xmvRlvuZ6DSw-9">
          <mxGeometry width="50" height="50" relative="1" as="geometry">
            <mxPoint x="-9.999999999999986" y="5.684341886080802e-14" as="sourcePoint" />
            <mxPoint x="32.60000000000004" y="-39.78" as="targetPoint" />
          </mxGeometry>
        </mxCell>
        <mxCell id="FRs5H7n3xmvRlvuZ6DSw-11" style="edgeStyle=orthogonalEdgeStyle;rounded=0;orthogonalLoop=1;jettySize=auto;html=1;endArrow=none;endFill=0;dashed=1;" edge="1" parent="1" source="FRs5H7n3xmvRlvuZ6DSw-9" target="FRs5H7n3xmvRlvuZ6DSw-1">
          <mxGeometry relative="1" as="geometry" />
        </mxCell>
        <mxCell id="FRs5H7n3xmvRlvuZ6DSw-15" value="" style="group" vertex="1" connectable="0" parent="1">
          <mxGeometry x="110" y="370" width="160" height="80" as="geometry" />
        </mxCell>
        <mxCell id="FRs5H7n3xmvRlvuZ6DSw-16" value="Запись участника" style="rounded=0;whiteSpace=wrap;html=1;" vertex="1" parent="FRs5H7n3xmvRlvuZ6DSw-15">
          <mxGeometry width="160" height="80" as="geometry" />
        </mxCell>
        <mxCell id="FRs5H7n3xmvRlvuZ6DSw-17" value="" style="endArrow=none;html=1;rounded=0;entryX=0.185;entryY=0.002;entryDx=0;entryDy=0;exitX=0;exitY=0.373;exitDx=0;exitDy=0;entryPerimeter=0;exitPerimeter=0;" edge="1" parent="FRs5H7n3xmvRlvuZ6DSw-15" source="FRs5H7n3xmvRlvuZ6DSw-16" target="FRs5H7n3xmvRlvuZ6DSw-16">
          <mxGeometry width="50" height="50" relative="1" as="geometry">
            <mxPoint x="-9.999999999999986" y="5.684341886080802e-14" as="sourcePoint" />
            <mxPoint x="32.60000000000004" y="-39.78" as="targetPoint" />
          </mxGeometry>
        </mxCell>
        <mxCell id="FRs5H7n3xmvRlvuZ6DSw-18" style="edgeStyle=orthogonalEdgeStyle;rounded=0;orthogonalLoop=1;jettySize=auto;html=1;entryX=0;entryY=1;entryDx=0;entryDy=0;endArrow=none;endFill=0;dashed=1;" edge="1" parent="1" source="FRs5H7n3xmvRlvuZ6DSw-16" target="FRs5H7n3xmvRlvuZ6DSw-14">
          <mxGeometry relative="1" as="geometry" />
        </mxCell>
        <mxCell id="FRs5H7n3xmvRlvuZ6DSw-19" value="" style="group" vertex="1" connectable="0" parent="1">
          <mxGeometry x="400" y="100" width="160" height="80" as="geometry" />
        </mxCell>
        <mxCell id="FRs5H7n3xmvRlvuZ6DSw-20" value="Игра&amp;nbsp;&lt;span style=&quot;background-color: initial;&quot;&gt;завершена&lt;/span&gt;&lt;div&gt;&lt;span style=&quot;background-color: initial;&quot;&gt;успешно&lt;/span&gt;&lt;/div&gt;" style="rounded=0;whiteSpace=wrap;html=1;" vertex="1" parent="FRs5H7n3xmvRlvuZ6DSw-19">
          <mxGeometry width="160" height="80" as="geometry" />
        </mxCell>
        <mxCell id="FRs5H7n3xmvRlvuZ6DSw-21" value="" style="endArrow=none;html=1;rounded=0;entryX=0.185;entryY=0.002;entryDx=0;entryDy=0;exitX=0;exitY=0.373;exitDx=0;exitDy=0;entryPerimeter=0;exitPerimeter=0;" edge="1" parent="FRs5H7n3xmvRlvuZ6DSw-19" source="FRs5H7n3xmvRlvuZ6DSw-20" target="FRs5H7n3xmvRlvuZ6DSw-20">
          <mxGeometry width="50" height="50" relative="1" as="geometry">
            <mxPoint x="-9.999999999999986" y="5.684341886080802e-14" as="sourcePoint" />
            <mxPoint x="32.60000000000004" y="-39.78" as="targetPoint" />
          </mxGeometry>
        </mxCell>
        <mxCell id="FRs5H7n3xmvRlvuZ6DSw-22" value="&lt;font style=&quot;font-size: 10px;&quot;&gt;А3.1.2&lt;/font&gt;" style="rounded=0;whiteSpace=wrap;html=1;" vertex="1" parent="FRs5H7n3xmvRlvuZ6DSw-19">
          <mxGeometry y="65" width="80" height="15" as="geometry" />
        </mxCell>
        <mxCell id="FRs5H7n3xmvRlvuZ6DSw-23" value="" style="rounded=0;whiteSpace=wrap;html=1;" vertex="1" parent="FRs5H7n3xmvRlvuZ6DSw-19">
          <mxGeometry x="80" y="65" width="80" height="15" as="geometry" />
        </mxCell>
        <mxCell id="FRs5H7n3xmvRlvuZ6DSw-24" value="" style="group" vertex="1" connectable="0" parent="1">
          <mxGeometry x="400" y="370" width="160" height="80" as="geometry" />
        </mxCell>
        <mxCell id="FRs5H7n3xmvRlvuZ6DSw-25" value="Возникли проблемы" style="rounded=0;whiteSpace=wrap;html=1;" vertex="1" parent="FRs5H7n3xmvRlvuZ6DSw-24">
          <mxGeometry width="160" height="80" as="geometry" />
        </mxCell>
        <mxCell id="FRs5H7n3xmvRlvuZ6DSw-26" value="" style="endArrow=none;html=1;rounded=0;entryX=0.185;entryY=0.002;entryDx=0;entryDy=0;exitX=0;exitY=0.373;exitDx=0;exitDy=0;entryPerimeter=0;exitPerimeter=0;" edge="1" parent="FRs5H7n3xmvRlvuZ6DSw-24" source="FRs5H7n3xmvRlvuZ6DSw-25" target="FRs5H7n3xmvRlvuZ6DSw-25">
          <mxGeometry width="50" height="50" relative="1" as="geometry">
            <mxPoint x="-9.999999999999986" y="5.684341886080802e-14" as="sourcePoint" />
            <mxPoint x="32.60000000000004" y="-39.78" as="targetPoint" />
          </mxGeometry>
        </mxCell>
        <mxCell id="FRs5H7n3xmvRlvuZ6DSw-27" value="&lt;font style=&quot;font-size: 10px;&quot;&gt;А3.1.3&lt;/font&gt;" style="rounded=0;whiteSpace=wrap;html=1;" vertex="1" parent="FRs5H7n3xmvRlvuZ6DSw-24">
          <mxGeometry y="65" width="80" height="15" as="geometry" />
        </mxCell>
        <mxCell id="FRs5H7n3xmvRlvuZ6DSw-28" value="" style="rounded=0;whiteSpace=wrap;html=1;" vertex="1" parent="FRs5H7n3xmvRlvuZ6DSw-24">
          <mxGeometry x="80" y="65" width="80" height="15" as="geometry" />
        </mxCell>
        <mxCell id="FRs5H7n3xmvRlvuZ6DSw-29" style="edgeStyle=orthogonalEdgeStyle;rounded=0;orthogonalLoop=1;jettySize=auto;html=1;entryX=0;entryY=0.5;entryDx=0;entryDy=0;exitX=0.5;exitY=0;exitDx=0;exitDy=0;" edge="1" parent="1" source="FRs5H7n3xmvRlvuZ6DSw-4" target="FRs5H7n3xmvRlvuZ6DSw-20">
          <mxGeometry relative="1" as="geometry" />
        </mxCell>
        <mxCell id="FRs5H7n3xmvRlvuZ6DSw-30" style="edgeStyle=orthogonalEdgeStyle;rounded=0;orthogonalLoop=1;jettySize=auto;html=1;entryX=0;entryY=0.5;entryDx=0;entryDy=0;exitX=0.5;exitY=1;exitDx=0;exitDy=0;" edge="1" parent="1" source="FRs5H7n3xmvRlvuZ6DSw-4" target="FRs5H7n3xmvRlvuZ6DSw-25">
          <mxGeometry relative="1" as="geometry" />
        </mxCell>
        <mxCell id="FRs5H7n3xmvRlvuZ6DSw-31" value="" style="group" vertex="1" connectable="0" parent="1">
          <mxGeometry x="580" y="250" width="40" height="60" as="geometry" />
        </mxCell>
        <mxCell id="FRs5H7n3xmvRlvuZ6DSw-32" value="Х" style="rounded=0;whiteSpace=wrap;html=1;" vertex="1" parent="FRs5H7n3xmvRlvuZ6DSw-31">
          <mxGeometry x="10" width="30" height="60" as="geometry" />
        </mxCell>
        <mxCell id="FRs5H7n3xmvRlvuZ6DSw-33" value="" style="rounded=0;whiteSpace=wrap;html=1;" vertex="1" parent="FRs5H7n3xmvRlvuZ6DSw-31">
          <mxGeometry width="10" height="60" as="geometry" />
        </mxCell>
        <mxCell id="FRs5H7n3xmvRlvuZ6DSw-35" style="edgeStyle=orthogonalEdgeStyle;rounded=0;orthogonalLoop=1;jettySize=auto;html=1;entryX=0.5;entryY=0;entryDx=0;entryDy=0;" edge="1" parent="1" source="FRs5H7n3xmvRlvuZ6DSw-20" target="FRs5H7n3xmvRlvuZ6DSw-32">
          <mxGeometry relative="1" as="geometry" />
        </mxCell>
        <mxCell id="FRs5H7n3xmvRlvuZ6DSw-36" style="edgeStyle=orthogonalEdgeStyle;rounded=0;orthogonalLoop=1;jettySize=auto;html=1;entryX=0.5;entryY=1;entryDx=0;entryDy=0;" edge="1" parent="1" source="FRs5H7n3xmvRlvuZ6DSw-25" target="FRs5H7n3xmvRlvuZ6DSw-32">
          <mxGeometry relative="1" as="geometry">
            <mxPoint x="645" y="312" as="targetPoint" />
          </mxGeometry>
        </mxCell>
        <mxCell id="FRs5H7n3xmvRlvuZ6DSw-37" value="J7" style="text;html=1;align=center;verticalAlign=middle;whiteSpace=wrap;rounded=0;" vertex="1" parent="1">
          <mxGeometry x="354" y="300" width="60" height="30" as="geometry" />
        </mxCell>
        <mxCell id="FRs5H7n3xmvRlvuZ6DSw-38" value="J8" style="text;html=1;align=center;verticalAlign=middle;whiteSpace=wrap;rounded=0;" vertex="1" parent="1">
          <mxGeometry x="610" y="300" width="50" height="30" as="geometry" />
        </mxCell>
        <mxCell id="FRs5H7n3xmvRlvuZ6DSw-44" style="edgeStyle=orthogonalEdgeStyle;rounded=0;orthogonalLoop=1;jettySize=auto;html=1;entryX=0;entryY=0.5;entryDx=0;entryDy=0;" edge="1" parent="1" source="FRs5H7n3xmvRlvuZ6DSw-32">
          <mxGeometry relative="1" as="geometry">
            <mxPoint x="680" y="280" as="targetPoint" />
          </mxGeometry>
        </mxCell>
        <mxCell id="FRs5H7n3xmvRlvuZ6DSw-78" value="" style="group" vertex="1" connectable="0" parent="1">
          <mxGeometry x="-110" y="240" width="160" height="80" as="geometry" />
        </mxCell>
        <mxCell id="FRs5H7n3xmvRlvuZ6DSw-79" value="Ведущий" style="rounded=0;whiteSpace=wrap;html=1;" vertex="1" parent="FRs5H7n3xmvRlvuZ6DSw-78">
          <mxGeometry width="160" height="80" as="geometry" />
        </mxCell>
        <mxCell id="FRs5H7n3xmvRlvuZ6DSw-80" value="" style="endArrow=none;html=1;rounded=0;entryX=0.185;entryY=0.002;entryDx=0;entryDy=0;exitX=0;exitY=0.373;exitDx=0;exitDy=0;entryPerimeter=0;exitPerimeter=0;" edge="1" parent="FRs5H7n3xmvRlvuZ6DSw-78" source="FRs5H7n3xmvRlvuZ6DSw-79" target="FRs5H7n3xmvRlvuZ6DSw-79">
          <mxGeometry width="50" height="50" relative="1" as="geometry">
            <mxPoint x="-9.999999999999986" y="5.684341886080802e-14" as="sourcePoint" />
            <mxPoint x="32.60000000000004" y="-39.78" as="targetPoint" />
          </mxGeometry>
        </mxCell>
        <mxCell id="FRs5H7n3xmvRlvuZ6DSw-81" style="edgeStyle=orthogonalEdgeStyle;rounded=0;orthogonalLoop=1;jettySize=auto;html=1;entryX=0;entryY=0.5;entryDx=0;entryDy=0;endArrow=none;endFill=0;dashed=1;" edge="1" parent="1" source="FRs5H7n3xmvRlvuZ6DSw-79" target="FRs5H7n3xmvRlvuZ6DSw-1">
          <mxGeometry relative="1" as="geometry" />
        </mxCell>
        <mxCell id="FRs5H7n3xmvRlvuZ6DSw-82" value="" style="group" vertex="1" connectable="0" parent="1">
          <mxGeometry x="680" y="240" width="160" height="80" as="geometry" />
        </mxCell>
        <mxCell id="FRs5H7n3xmvRlvuZ6DSw-83" value="Внесение&amp;nbsp;&lt;div&gt;результатов игры&lt;/div&gt;" style="rounded=0;whiteSpace=wrap;html=1;" vertex="1" parent="FRs5H7n3xmvRlvuZ6DSw-82">
          <mxGeometry width="160" height="80" as="geometry" />
        </mxCell>
        <mxCell id="FRs5H7n3xmvRlvuZ6DSw-84" value="" style="endArrow=none;html=1;rounded=0;entryX=0.185;entryY=0.002;entryDx=0;entryDy=0;exitX=0;exitY=0.373;exitDx=0;exitDy=0;entryPerimeter=0;exitPerimeter=0;" edge="1" parent="FRs5H7n3xmvRlvuZ6DSw-82" source="FRs5H7n3xmvRlvuZ6DSw-83" target="FRs5H7n3xmvRlvuZ6DSw-83">
          <mxGeometry width="50" height="50" relative="1" as="geometry">
            <mxPoint x="-9.999999999999986" y="5.684341886080802e-14" as="sourcePoint" />
            <mxPoint x="32.60000000000004" y="-39.78" as="targetPoint" />
          </mxGeometry>
        </mxCell>
        <mxCell id="FRs5H7n3xmvRlvuZ6DSw-85" value="&lt;font style=&quot;font-size: 10px;&quot;&gt;А3.1.4&lt;/font&gt;" style="rounded=0;whiteSpace=wrap;html=1;" vertex="1" parent="FRs5H7n3xmvRlvuZ6DSw-82">
          <mxGeometry y="65" width="80" height="15" as="geometry" />
        </mxCell>
        <mxCell id="FRs5H7n3xmvRlvuZ6DSw-86" value="" style="rounded=0;whiteSpace=wrap;html=1;" vertex="1" parent="FRs5H7n3xmvRlvuZ6DSw-82">
          <mxGeometry x="80" y="65" width="80" height="15" as="geometry" />
        </mxCell>
      </root>
    </mxGraphModel>
  </diagram>
</mxfile>
